<svg width="20" height="20" viewBox="0 0 20 20" fill="none" xmlns="http://www.w3.org/2000/svg">
<rect width="20" height="20" rx="10" fill="#EE1D52"/>
<path d="M9.5225 14C9.2985 14 9.1145 13.932 8.9705 13.796C8.8265 13.652 8.7545 13.476 8.7545 13.268V7.22L8.9225 7.484L8.0465 8.132C7.9345 8.22 7.7945 8.264 7.6265 8.264C7.4345 8.264 7.2665 8.192 7.1225 8.048C6.9785 7.904 6.9065 7.732 6.9065 7.532C6.9065 7.276 7.0305 7.068 7.2785 6.908L9.0065 5.756C9.0865 5.7 9.1745 5.66 9.2705 5.636C9.3745 5.612 9.4705 5.6 9.5585 5.6C9.7905 5.6 9.9745 5.672 10.1105 5.816C10.2465 5.952 10.3145 6.124 10.3145 6.332V13.268C10.3145 13.476 10.2385 13.652 10.0865 13.796C9.9425 13.932 9.7545 14 9.5225 14Z" fill="white"/>
</svg>
