<svg width="40" height="40" viewBox="0 0 40 40" fill="none" xmlns="http://www.w3.org/2000/svg">
<path d="M20.0005 28.7923L13.0839 32.959C12.7783 33.1534 12.4589 33.2368 12.1255 33.209C11.7922 33.1812 11.5005 33.0701 11.2505 32.8757C11.0005 32.6812 10.8061 32.4384 10.6672 32.1473C10.5283 31.8562 10.5005 31.5295 10.5839 31.1673L12.4172 23.2923L6.29221 18.0007C6.01444 17.7507 5.8411 17.4657 5.77221 17.1457C5.70333 16.8257 5.72388 16.5134 5.83388 16.209C5.94388 15.9045 6.11055 15.6545 6.33388 15.459C6.55721 15.2634 6.86277 15.1384 7.25055 15.084L15.3339 14.3757L18.4589 6.95898C18.5978 6.62565 18.8133 6.37565 19.1055 6.20898C19.3978 6.04232 19.6961 5.95898 20.0005 5.95898C20.305 5.95898 20.6033 6.04232 20.8955 6.20898C21.1878 6.37565 21.4033 6.62565 21.5422 6.95898L24.6672 14.3757L32.7505 15.084C33.1394 15.1395 33.445 15.2645 33.6672 15.459C33.8894 15.6534 34.0561 15.9034 34.1672 16.209C34.2783 16.5145 34.2994 16.8273 34.2305 17.1473C34.1617 17.4673 33.9878 17.7518 33.7089 18.0007L27.5839 23.2923L29.4172 31.1673C29.5005 31.5284 29.4728 31.8551 29.3339 32.1473C29.195 32.4395 29.0005 32.6823 28.7505 32.8757C28.5005 33.069 28.2089 33.1801 27.8755 33.209C27.5422 33.2379 27.2228 33.1545 26.9172 32.959L20.0005 28.7923Z" fill="#FDB022"/>
</svg>
